<mxfile host="app.diagrams.net" modified="2020-12-08T00:29:40.287Z" agent="5.0 (Macintosh; Intel Mac OS X 11_0_1) AppleWebKit/537.36 (KHTML, like Gecko) Chrome/87.0.4280.88 Safari/537.36" etag="FGpfZpH-RpOhV9WIU9v_" version="13.5.5" type="github">
  <diagram id="FxOpxu9py_p3u7plnWH6" name="第1頁">
    <mxGraphModel dx="1426" dy="710" grid="1" gridSize="10" guides="1" tooltips="1" connect="1" arrows="1" fold="1" page="1" pageScale="1" pageWidth="1169" pageHeight="1654" math="0" shadow="0">
      <root>
        <mxCell id="0" />
        <mxCell id="1" parent="0" />
        <mxCell id="a8VA2QGC2lijx9hELxjZ-1" value="" style="verticalLabelPosition=bottom;html=1;verticalAlign=top;align=center;strokeColor=none;fillColor=#00BEF2;shape=mxgraph.azure.user;" vertex="1" parent="1">
          <mxGeometry x="515" y="100" width="70" height="70" as="geometry" />
        </mxCell>
        <mxCell id="a8VA2QGC2lijx9hELxjZ-2" value="" style="rounded=1;whiteSpace=wrap;html=1;" vertex="1" parent="1">
          <mxGeometry x="250" y="225" width="620" height="120" as="geometry" />
        </mxCell>
        <mxCell id="a8VA2QGC2lijx9hELxjZ-3" value="In" style="rounded=0;whiteSpace=wrap;html=1;" vertex="1" parent="1">
          <mxGeometry x="290" y="255" width="120" height="60" as="geometry" />
        </mxCell>
        <mxCell id="a8VA2QGC2lijx9hELxjZ-4" value="Entering" style="rounded=0;whiteSpace=wrap;html=1;" vertex="1" parent="1">
          <mxGeometry x="500" y="255" width="120" height="60" as="geometry" />
        </mxCell>
        <mxCell id="a8VA2QGC2lijx9hELxjZ-5" value="Leaving" style="rounded=0;whiteSpace=wrap;html=1;" vertex="1" parent="1">
          <mxGeometry x="710" y="255" width="120" height="60" as="geometry" />
        </mxCell>
      </root>
    </mxGraphModel>
  </diagram>
</mxfile>
